<?xml version="1.0" encoding="UTF-8" standalone="no"?>
<!-- Generator: Adobe Illustrator 16.0.4, SVG Export Plug-In . SVG Version: 6.00 Build 0)  -->

<svg
   xmlns:dc="http://purl.org/dc/elements/1.1/"
   xmlns:cc="http://creativecommons.org/ns#"
   xmlns:rdf="http://www.w3.org/1999/02/22-rdf-syntax-ns#"
   xmlns:svg="http://www.w3.org/2000/svg"
   xmlns="http://www.w3.org/2000/svg"
   xmlns:sodipodi="http://sodipodi.sourceforge.net/DTD/sodipodi-0.dtd"
   xmlns:inkscape="http://www.inkscape.org/namespaces/inkscape"
   version="1.1"
   id="Ebene_1"
   x="0px"
   y="0px"
   width="120"
   height="140"
   viewBox="0 0 120 140"
   enable-background="new 0 0 281 217"
   xml:space="preserve"
   inkscape:version="0.48.4 r9939"
   sodipodi:docname="logo_large.svg"><metadata
     id="metadata3317"><rdf:RDF><cc:Work
         rdf:about=""><dc:format>image/svg+xml</dc:format><dc:type
           rdf:resource="http://purl.org/dc/dcmitype/StillImage" /><dc:title></dc:title></cc:Work></rdf:RDF></metadata><defs
     id="defs3315" /><sodipodi:namedview
     pagecolor="#ffffff"
     bordercolor="#666666"
     borderopacity="1"
     objecttolerance="10"
     gridtolerance="10"
     guidetolerance="10"
     inkscape:pageopacity="0"
     inkscape:pageshadow="2"
     inkscape:window-width="1323"
     inkscape:window-height="744"
     id="namedview3313"
     showgrid="false"
     inkscape:zoom="2.1751152"
     inkscape:cx="97.234376"
     inkscape:cy="77.266818"
     inkscape:window-x="43"
     inkscape:window-y="24"
     inkscape:window-maximized="1"
     inkscape:current-layer="Ebene_1"
     fit-margin-top="0"
     fit-margin-left="0"
     fit-margin-right="0"
     fit-margin-bottom="0" /><g
     id="g3301"
     transform="translate(-80,-1)"><g
       id="g3303"><path
         clip-rule="evenodd"
         d="M 161.87,15.33 138.93,2 114.99,16.87 138.25,29.72 161.87,15.33 z M 172.84,21.07 149.15,35.48 176,51 V 92 L 139.79,112.58 104,92 V 60 L 80,48.08 V 106 L 138.93,141 200,106.26 V 36.76 L 172.84,21.07 z"
         id="path3305"
         inkscape:connector-curvature="0"
         style="fill:#2c92be;fill-rule:evenodd" /></g><g
       id="g3307"><g
         id="g3309"><path
           clip-rule="evenodd"
           d="M 161.87,14.33 138.93,1 114.99,15.87 138.25,28.72 161.87,14.33 z M 172.84,20.07 149.15,34.48 176,50 V 91 L 139.79,111.58 104,91 V 59 L 80,47.08 V 105 L 138.93,140 200,105.26 V 35.76 L 172.84,20.07 z"
           id="path3311"
           inkscape:connector-curvature="0"
           style="fill:#ffffff;fill-rule:evenodd" /></g></g></g></svg>